<svg width="33" height="32" viewBox="0 0 33 32" fill="none" xmlns="http://www.w3.org/2000/svg">
<rect x="1" y="0.5" width="31" height="31" rx="15.5" stroke="#D8DBE0"/>
<path d="M14.182 18.83C15.078 18.0553 15.7826 17.4207 16.296 16.926C16.8186 16.422 17.2526 15.8993 17.598 15.358C17.9433 14.8167 18.116 14.2753 18.116 13.734C18.116 13.174 17.9806 12.7353 17.71 12.418C17.4486 12.1007 17.0333 11.942 16.464 11.942C15.9133 11.942 15.484 12.1193 15.176 12.474C14.8773 12.8193 14.7186 13.286 14.7 13.874H13.16C13.188 12.81 13.5053 11.998 14.112 11.438C14.728 10.8687 15.5073 10.584 16.45 10.584C17.4673 10.584 18.2606 10.864 18.83 11.424C19.4086 11.984 19.698 12.7307 19.698 13.664C19.698 14.336 19.5253 14.9847 19.18 15.61C18.844 16.226 18.438 16.7813 17.962 17.276C17.4953 17.7613 16.898 18.326 16.17 18.97L15.54 19.53H19.978V20.86H13.174V19.698L14.182 18.83Z" fill="#303237"/>
</svg>
