<svg width="33" height="32" viewBox="0 0 33 32" fill="none" xmlns="http://www.w3.org/2000/svg">
<rect x="1" y="0.5" width="31" height="31" rx="15.5" stroke="#D8DBE0"/>
<path d="M13.1558 13.314C13.2118 12.446 13.5431 11.7693 14.1498 11.284C14.7658 10.7987 15.5498 10.556 16.5018 10.556C17.1551 10.556 17.7198 10.6727 18.1958 10.906C18.6718 11.1393 19.0311 11.4567 19.2738 11.858C19.5164 12.2593 19.6378 12.712 19.6378 13.216C19.6378 13.7947 19.4838 14.2893 19.1758 14.7C18.8678 15.1107 18.4991 15.386 18.0698 15.526V15.582C18.6204 15.75 19.0498 16.058 19.3578 16.506C19.6658 16.9447 19.8198 17.5093 19.8198 18.2C19.8198 18.7507 19.6938 19.2407 19.4418 19.67C19.1898 20.0993 18.8164 20.44 18.3218 20.692C17.8271 20.9347 17.2344 21.056 16.5438 21.056C15.5358 21.056 14.7051 20.7993 14.0518 20.286C13.4078 19.7633 13.0624 19.0167 13.0158 18.046H14.5558C14.5931 18.5407 14.7844 18.9467 15.1298 19.264C15.4751 19.572 15.9418 19.726 16.5298 19.726C17.0991 19.726 17.5378 19.572 17.8458 19.264C18.1538 18.9467 18.3078 18.5407 18.3078 18.046C18.3078 17.3927 18.0978 16.9307 17.6778 16.66C17.2671 16.38 16.6324 16.24 15.7738 16.24H15.4098V14.924H15.7878C16.5438 14.9147 17.1178 14.7887 17.5098 14.546C17.9111 14.3033 18.1118 13.9207 18.1118 13.398C18.1118 12.95 17.9671 12.5953 17.6778 12.334C17.3884 12.0633 16.9778 11.928 16.4458 11.928C15.9231 11.928 15.5171 12.0633 15.2278 12.334C14.9384 12.5953 14.7658 12.922 14.7098 13.314H13.1558Z" fill="#303237"/>
</svg>
