<svg width="20" height="21" viewBox="0 0 20 21" fill="none" xmlns="http://www.w3.org/2000/svg">
<g id="icon-logo.svg" clip-path="url(#clip0_2674_10963)">
<g id="Group">
<path id="Vector" fill-rule="evenodd" clip-rule="evenodd" d="M17.6478 8.56041V17.5585C17.6478 17.9449 17.5717 18.3275 17.4237 18.6844C17.2758 19.0413 17.059 19.3656 16.7857 19.6387C16.5124 19.9119 16.188 20.1285 15.831 20.2761C15.4739 20.4238 15.0913 20.4997 14.7049 20.4995H12.343C12.1871 20.4992 12.0376 20.4371 11.9275 20.3267C11.8173 20.2164 11.7554 20.0668 11.7554 19.9109V16.9966C11.7554 16.3357 11.2278 15.8023 10.5792 15.8023H9.4116C8.76398 15.8023 8.23541 16.3357 8.23541 16.9966V19.9109C8.23541 20.0668 8.17353 20.2164 8.06336 20.3267C7.95319 20.4371 7.80373 20.4992 7.64779 20.4995H5.29541C4.51542 20.4995 3.76738 20.1896 3.21585 19.6381C2.66431 19.0865 2.35446 18.3385 2.35446 17.5585V8.56041L0.975414 9.76613C0.917766 9.82015 0.849831 9.86202 0.775659 9.88923C0.701487 9.91644 0.622596 9.92844 0.543688 9.92451C0.464781 9.92058 0.387471 9.90081 0.316368 9.86637C0.245264 9.83193 0.181823 9.78352 0.129824 9.72404C0.0778259 9.66456 0.0383351 9.59522 0.0137056 9.52015C-0.0109238 9.44508 -0.0201877 9.36582 -0.0135339 9.2871C-0.00688006 9.20837 0.0155553 9.13179 0.0524349 9.06192C0.0893145 8.99205 0.139883 8.93032 0.201128 8.88041L9.61256 0.645175C9.71985 0.551272 9.85759 0.499512 10.0002 0.499512C10.1428 0.499512 10.2805 0.551272 10.3878 0.645175L19.7992 8.88041C19.9106 8.98474 19.977 9.12823 19.9846 9.28062C19.9922 9.433 19.9403 9.58238 19.8399 9.69725C19.7395 9.81212 19.5984 9.8835 19.4463 9.89635C19.2943 9.9092 19.1432 9.86251 19.0249 9.76613L17.6468 8.56041H17.6478Z" fill="#6FA5FF"/>
</g>
</g>
<defs>
<clipPath id="clip0_2674_10963">
<rect width="20" height="20" fill="white" transform="translate(0 0.5)"/>
</clipPath>
</defs>
</svg>
