<svg width="17" height="16" viewBox="0 0 17 16" fill="none" xmlns="http://www.w3.org/2000/svg">
<g id="ic-phone.svg" clip-path="url(#clip0_2674_10970)">
<g id="Group">
<path id="Vector" fill-rule="evenodd" clip-rule="evenodd" d="M14.0992 10.5179C14.0051 10.4236 13.8933 10.3488 13.7703 10.2978C13.6473 10.2468 13.5154 10.2205 13.3822 10.2205C13.249 10.2205 13.1171 10.2468 12.9941 10.2978C12.871 10.3488 12.7593 10.4236 12.6652 10.5179L11.8422 11.3409C11.7349 11.4483 11.5945 11.5164 11.4437 11.5342C11.2929 11.552 11.1405 11.5184 11.0112 11.4389C9.88875 10.7685 8.84172 9.97931 7.88817 9.08489C6.99417 8.13089 6.20417 7.08489 5.53417 5.96189C5.45466 5.83254 5.42109 5.68016 5.43887 5.52938C5.45665 5.37859 5.52475 5.2382 5.63217 5.13089L6.45517 4.30789C6.54944 4.2138 6.62424 4.10204 6.67527 3.97901C6.7263 3.85598 6.75257 3.72409 6.75257 3.59089C6.75257 3.4577 6.7263 3.32581 6.67527 3.20278C6.62424 3.07975 6.54944 2.96799 6.45517 2.87389L4.54317 0.963894C4.4491 0.869768 4.3374 0.7951 4.21446 0.744157C4.09152 0.693213 3.95975 0.666992 3.82667 0.666992C3.69359 0.666992 3.56182 0.693213 3.43888 0.744157C3.31594 0.7951 3.20424 0.869768 3.11017 0.963894L1.96317 2.10989C1.40488 2.66725 1.05948 3.40256 0.986954 4.18809C0.91443 4.97362 1.11937 5.75975 1.56617 6.40989C2.74559 8.19578 4.06045 9.88843 5.49917 11.4729C7.08332 12.9113 8.77563 14.2258 10.5612 15.4049C11.2113 15.8517 11.9974 16.0566 12.783 15.9841C13.5685 15.9116 14.3038 15.5662 14.8612 15.0079L16.0082 13.8609C16.1023 13.7668 16.177 13.6551 16.2279 13.5322C16.2788 13.4092 16.3051 13.2775 16.3051 13.1444C16.3051 13.0113 16.2788 12.8795 16.2279 12.7566C16.177 12.6337 16.1023 12.522 16.0082 12.4279L14.0982 10.5179H14.0992ZM13.5252 7.68989C13.6552 7.81989 13.8662 7.81989 13.9962 7.68989C14.3136 7.38222 14.5667 7.01447 14.7406 6.60805C14.9145 6.20164 15.0059 5.76468 15.0093 5.32262C15.0128 4.88057 14.9283 4.44224 14.7607 4.03316C14.5931 3.62408 14.3458 3.25243 14.0332 2.93983C13.7206 2.62724 13.349 2.37996 12.9399 2.21238C12.5308 2.0448 12.0925 1.96027 11.6504 1.96372C11.2084 1.96717 10.7714 2.05853 10.365 2.23247C9.9586 2.40641 9.59085 2.65946 9.28317 2.97689C9.22071 3.03935 9.18562 3.12406 9.18562 3.21239C9.18562 3.30072 9.22071 3.38544 9.28317 3.44789C9.34563 3.51035 9.43034 3.54544 9.51867 3.54544C9.607 3.54544 9.69171 3.51035 9.75417 3.44789C9.99936 3.1899 10.2937 2.9836 10.6199 2.84114C10.946 2.69868 11.2974 2.62294 11.6533 2.61839C12.0092 2.61384 12.3624 2.68057 12.6921 2.81464C13.0218 2.94872 13.3213 3.14743 13.573 3.39907C13.8247 3.6507 14.0235 3.95018 14.1576 4.27983C14.2918 4.60949 14.3586 4.96267 14.3542 5.31856C14.3497 5.67445 14.2741 6.02584 14.1317 6.35204C13.9893 6.67824 13.7831 6.97264 13.5252 7.21789C13.3952 7.34889 13.3952 7.55989 13.5252 7.68989Z" fill="#3E82F7"/>
<path id="Vector_2" fill-rule="evenodd" clip-rule="evenodd" d="M8.33893 2.03299C9.21606 1.167 10.4002 0.683163 11.6328 0.6871C12.8654 0.691037 14.0463 1.18243 14.9179 2.05401C15.7895 2.92559 16.2809 4.10657 16.2848 5.33917C16.2888 6.57176 15.8049 7.75586 14.9389 8.63299C14.9079 8.66392 14.8833 8.70065 14.8665 8.74108C14.8497 8.78151 14.8411 8.82486 14.841 8.86864C14.841 8.91242 14.8496 8.95579 14.8663 8.99625C14.883 9.03672 14.9075 9.0735 14.9384 9.10449C14.9694 9.13548 15.0061 9.16008 15.0465 9.17688C15.087 9.19368 15.1303 9.20235 15.1741 9.20239C15.2179 9.20244 15.2612 9.19386 15.3017 9.17715C15.3422 9.16044 15.3789 9.13592 15.4099 9.10499C16.3929 8.10116 16.9402 6.75003 16.9328 5.34508C16.9254 3.94013 16.364 2.59482 15.3706 1.60136C14.3771 0.60789 13.0318 0.046506 11.6268 0.039136C10.2219 0.031766 8.87076 0.579006 7.86693 1.56199C7.80447 1.62458 7.76944 1.70942 7.76953 1.79785C7.76963 1.88627 7.80484 1.97103 7.86743 2.03349C7.93002 2.09595 8.01486 2.13099 8.10329 2.13089C8.19171 2.1308 8.27647 2.09558 8.33893 2.03299Z" fill="#3E82F7"/>
</g>
</g>
<defs>
<clipPath id="clip0_2674_10970">
<rect width="16" height="16" fill="white" transform="translate(0.972656)"/>
</clipPath>
</defs>
</svg>
